<svg width="24" height="24" viewBox="0 0 24 24" fill="none" xmlns="http://www.w3.org/2000/svg">
  <title>OpenAI</title>
  <g clip-path="url(#clip0)">
    <path d="M9.20509 8.7652V6.50554C9.20509 6.31523 9.27649 6.17244 9.44293 6.07739L13.9861 3.46098C14.6046 3.10422 15.342 2.93778 16.103 2.93778C18.9573 2.93778 20.7651 5.14992 20.7651 7.50463C20.7651 7.67107 20.7651 7.86138 20.7412 8.0517L16.0316 5.29249C15.7462 5.12605 15.4607 5.12605 15.1753 5.29249L9.20509 8.7652ZM19.8136 17.566V12.1665C19.8136 11.8334 19.6708 11.5956 19.3854 11.4291L13.4152 7.95643L15.3656 6.83842C15.5321 6.74338 15.6749 6.74338 15.8413 6.83842L20.3845 9.45484C21.6928 10.2161 22.5728 11.8334 22.5728 13.4032C22.5728 15.2109 21.5025 16.8759 19.8136 17.5658V17.566ZM7.80173 12.8089L5.8513 11.6672C5.68486 11.5722 5.61346 11.4294 5.61346 11.2391V6.00622C5.61346 3.4612 7.56389 1.53442 10.2042 1.53442C11.2033 1.53442 12.1307 1.86752 12.9159 2.46211L8.2301 5.1738C7.94475 5.34024 7.80196 5.57807 7.80196 5.91118V12.8091L7.80173 12.8089ZM12 15.235L9.20509 13.6652V10.3352L12 8.76543L14.7947 10.3352V13.6652L12 15.235ZM13.7958 22.466C12.7967 22.466 11.8693 22.1329 11.0841 21.5383L15.7699 18.8266C16.0553 18.6602 16.198 18.4223 16.198 18.0892V11.1913L18.1724 12.333C18.3388 12.428 18.4102 12.5708 18.4102 12.7611V17.9939C18.4102 20.539 16.4359 22.4658 13.7958 22.4658V22.466ZM8.15848 17.1617L3.61528 14.5453C2.30696 13.7841 1.42701 12.1668 1.42701 10.5969C1.42701 8.76543 2.52115 7.12423 4.20987 6.43437V11.8575C4.20987 12.1906 4.35266 12.4285 4.63802 12.5949L10.5846 16.0437L8.63415 17.1617C8.46771 17.2568 8.32492 17.2568 8.15848 17.1617ZM7.897 21.0626C5.20919 21.0626 3.23488 19.0408 3.23488 16.5433C3.23488 16.353 3.25875 16.1627 3.2824 15.9723L7.96817 18.684C8.25352 18.8505 8.53911 18.8505 8.82447 18.684L14.7947 15.2352V17.4949C14.7947 17.6852 14.7233 17.828 14.5568 17.923L10.0136 20.5394C9.39518 20.8962 8.6578 21.0626 7.89677 21.0626H7.897ZM13.7958 23.893C16.6739 23.893 19.0762 21.8475 19.6235 19.1358C22.2874 18.446 24 15.9485 24 13.4035C24 11.7384 23.2865 10.121 22.002 8.95552C22.121 8.45597 22.1924 7.95643 22.1924 7.45711C22.1924 4.05579 19.4332 1.51054 16.2458 1.51054C15.6037 1.51054 14.9852 1.60559 14.3668 1.81977C13.2963 0.773162 11.8215 0.107178 10.2042 0.107178C7.32606 0.107178 4.92383 2.15265 4.37653 4.86434C1.7126 5.5542 0 8.0517 0 10.5967C0 12.2618 0.713506 13.8791 1.99795 15.0447C1.87904 15.5442 1.80764 16.0437 1.80764 16.5431C1.80764 19.9444 4.56685 22.4896 7.75421 22.4896C8.39632 22.4896 9.01478 22.3946 9.63324 22.1804C10.7035 23.227 12.1783 23.893 13.7958 23.893Z" fill="#0D0D0D"/>
  </g>
  <defs>
    <clipPath id="clip0">
      <rect width="24" height="24" fill="white"/>
    </clipPath>
  </defs>
</svg>
